<?xml version="1.0" standalone="no"?>
<!DOCTYPE svg PUBLIC "-//W3C//DTD SVG 20010904//EN"
 "http://www.w3.org/TR/2001/REC-SVG-20010904/DTD/svg10.dtd">
<svg version="1.0" xmlns="http://www.w3.org/2000/svg"
 width="512.000000pt" height="512.000000pt" viewBox="0 0 512.000000 512.000000"
 preserveAspectRatio="xMidYMid meet">

<g transform="translate(0.000000,512.000000) scale(0.100000,-0.100000)"
fill="#000000" stroke="none">
<path d="M1520 4828 c-65 -45 -75 -68 -78 -189 l-4 -109 -236 0 c-201 0 -249
-3 -319 -20 -297 -71 -522 -296 -593 -593 -20 -80 -20 -120 -20 -1517 0 -1392
1 -1437 20 -1517 71 -297 296 -522 593 -593 78 -19 120 -20 845 -20 684 0 768
2 798 16 50 24 77 68 82 133 5 70 -22 115 -88 148 l-44 23 -741 0 c-807 0
-783 -2 -899 57 -64 32 -157 125 -189 189 -60 118 -57 53 -57 1286 l0 1128
1970 0 1970 0 0 -303 c0 -294 1 -304 23 -347 33 -66 78 -93 148 -88 65 5 109
32 133 82 14 30 16 101 16 638 0 568 -1 608 -20 685 -71 297 -296 522 -593
593 -70 17 -118 20 -319 20 l-236 0 -4 109 c-3 121 -13 144 -78 189 -66 45
-159 23 -214 -51 -18 -24 -22 -46 -24 -138 l-4 -109 -798 0 -798 0 -4 109 c-2
92 -6 114 -24 138 -35 48 -82 73 -134 73 -32 0 -57 -7 -80 -22z m-78 -777 c3
-177 8 -191 78 -238 66 -46 159 -24 214 50 19 26 21 45 24 188 l3 159 799 0
799 0 3 -159 c3 -177 8 -191 78 -238 66 -46 159 -24 214 50 19 26 21 45 24
188 l3 159 223 0 c239 0 279 -6 380 -57 64 -32 157 -125 189 -189 44 -88 57
-149 57 -276 l0 -118 -1970 0 -1970 0 0 118 c0 179 37 281 139 383 61 60 113
92 201 120 46 15 93 18 282 18 l227 1 3 -159z"/>
<path d="M3463 2710 c-258 -36 -526 -171 -708 -355 -95 -97 -159 -188 -225
-320 -275 -550 -97 -1217 416 -1561 203 -135 432 -204 684 -204 756 0 1332
684 1204 1430 -44 256 -158 475 -344 660 -175 175 -374 283 -620 336 -87 19
-318 27 -407 14z m389 -339 c316 -82 570 -337 653 -651 26 -100 31 -298 11
-401 -61 -300 -273 -555 -556 -668 -190 -75 -414 -82 -610 -19 -301 97 -530
344 -607 655 -25 99 -24 314 1 413 84 331 337 589 655 670 110 27 124 29 256
25 78 -2 147 -11 197 -24z"/>
<path d="M3552 2113 c-18 -9 -43 -30 -55 -47 -21 -30 -22 -39 -25 -341 -2
-170 0 -320 3 -332 13 -52 59 -85 248 -179 202 -101 224 -106 293 -75 70 32
104 106 84 183 -17 60 -50 87 -186 154 l-122 59 -3 240 c-4 220 -6 243 -25
275 -43 74 -134 102 -212 63z"/>
</g>
</svg>
