<?xml version="1.0" standalone="no"?>
<!DOCTYPE svg PUBLIC "-//W3C//DTD SVG 20010904//EN"
 "http://www.w3.org/TR/2001/REC-SVG-20010904/DTD/svg10.dtd">
<svg version="1.0" xmlns="http://www.w3.org/2000/svg"
 width="512.000000pt" height="512.000000pt" viewBox="0 0 512.000000 512.000000"
 preserveAspectRatio="xMidYMid meet">

<g transform="translate(0.000000,512.000000) scale(0.100000,-0.100000)"
fill="#000000" stroke="none">
<path d="M3125 4376 c-128 -58 -156 -266 -47 -358 40 -34 78 -45 177 -52 251
-17 448 -149 547 -365 130 -284 30 -638 -227 -806 -55 -36 -106 -87 -125 -124
-21 -41 -14 -116 17 -172 32 -59 136 -144 272 -222 266 -153 463 -361 600
-634 94 -188 145 -384 160 -617 9 -142 16 -166 55 -213 59 -70 202 -85 285
-30 65 43 86 94 85 202 -4 324 -127 715 -319 1015 -123 193 -313 398 -491 529
l-101 75 36 47 c86 113 155 255 192 395 33 123 37 347 9 484 -89 435 -420 764
-848 846 -93 18 -237 18 -277 0z"/>
<path d="M1723 4355 c-397 -72 -715 -359 -827 -749 -105 -361 -8 -760 248
-1022 37 -37 65 -68 64 -69 -2 -1 -41 -22 -88 -48 -529 -285 -893 -872 -903
-1458 -2 -112 -1 -117 28 -164 83 -133 301 -128 372 10 10 18 19 77 24 155 5
69 16 161 25 205 88 434 412 804 834 953 152 53 237 67 425 66 185 -1 247 -11
409 -65 307 -102 586 -348 736 -648 72 -144 130 -384 130 -537 0 -152 74 -233
214 -234 114 0 196 69 211 178 7 57 -9 255 -31 361 -103 514 -442 966 -894
1191 -36 18 -66 33 -68 35 -1 1 27 32 64 69 255 261 353 662 248 1022 -113
393 -432 679 -833 749 -101 18 -290 18 -388 0z m357 -427 c168 -39 335 -174
410 -329 54 -114 74 -208 66 -329 -10 -172 -66 -300 -181 -416 -121 -121 -277
-184 -455 -184 -116 0 -189 17 -299 72 -277 135 -409 474 -304 779 81 234 260
377 533 423 37 6 177 -3 230 -16z"/>
</g>
</svg>
